<?xml version="1.0" encoding="UTF-8"?>
<!DOCTYPE svg PUBLIC "-//W3C//DTD SVG 1.0//EN" "http://www.w3.org/TR/2001/REC-SVG-20010904/DTD/svg10.dtd">
<!-- Creator: CorelDRAW 2017 -->
<svg xmlns="http://www.w3.org/2000/svg" xml:space="preserve" width="1772px" height="886px" version="1.0" style="shape-rendering:geometricPrecision; text-rendering:geometricPrecision; image-rendering:optimizeQuality; fill-rule:evenodd; clip-rule:evenodd"
viewBox="0 0 1772 886"
 xmlns:xlink="http://www.w3.org/1999/xlink">
 <defs>
  <style type="text/css">
   <![CDATA[
    .str0 {stroke:#2B2A29;stroke-width:2}
    .str1 {stroke:#FEFEFE;stroke-width:1}
    .fil1 {fill:none}
    .fil2 {fill:#FEFEFE}
    .fil3 {fill:#F2F2F2}
    .fil0 {fill:#FDFDFD}
   ]]>
  </style>
 </defs>
 <g id="Слой_x0020_1">
  <metadata id="CorelCorpID_0Corel-Layer"/>
  <path class="fil0" d="M-388 -1169c3,-6 5,-15 8,-21 7,-13 16,-22 29,-29 7,-3 16,-5 22,-8l-59 0 0 59z"/>
  <path class="fil0" d="M1756 -1168l0 -60 -59 0c13,7 35,7 51,37 4,8 5,16 8,23z"/>
  <rect class="fil1 str0" x="-4516" y="-2131" width="50" height="144"/>
  <path class="fil2" d="M1482 719l-4 -16 12 -5c5,-1 10,-1 15,-2l1 18c-12,-2 -19,-5 -24,5zm-13 -111l-1 -18 22 -4c2,7 3,22 1,28 0,0 -1,-2 -1,-1l-1 -3c-1,-3 2,0 -2,-5l-18 3zm-23 -151c-5,10 -14,6 -36,14l-34 14c-4,11 -13,19 8,17l40 -11c2,-1 -1,0 4,-3l24 -6 1 19 -16 2c-2,6 0,7 -7,10 -9,1 -17,6 -25,8 -9,3 -17,5 -25,8 -18,6 -36,9 -56,11 -1,5 0,0 -3,5 -3,5 -9,15 -4,19 8,7 71,-25 103,-33 39,-9 40,-17 40,35 -10,4 -30,3 -42,8 -7,2 -29,12 -35,12 1,5 2,4 2,10 -25,13 -42,25 -59,43 -6,6 -17,19 -25,26 -11,9 -15,14 -32,17 1,7 -5,33 37,-1 6,-5 30,-29 36,-31 17,-29 82,-60 121,-59 3,6 7,44 7,52 -26,3 -105,-11 -102,21l9 4c19,1 36,1 55,1 19,0 35,-5 47,3l1 22 -74 11 -2 -10 -7 0 -20 4c-33,6 -97,26 -93,64 12,1 38,-27 84,-39 15,-4 96,-18 108,-18 2,7 7,40 6,49 -11,3 -23,4 -35,7 -9,2 -24,9 -31,8 -3,5 -2,3 0,10 -25,2 -52,26 -70,40 5,4 -2,2 7,2 3,-3 46,-23 52,-26 12,-5 49,-19 62,-15 4,-3 13,-8 17,-2 2,3 1,7 1,10 2,16 9,-5 9,52 -9,0 -41,-6 -50,-8 -15,-4 -3,-13 -48,-3 -8,7 -12,4 -13,15l88 12c6,0 11,-1 14,4 5,7 -3,5 6,12 0,-5 0,-12 -3,-15l25 3c0,12 -4,12 -5,22 8,-5 8,-10 11,-21 20,0 41,3 62,3 22,0 44,1 66,0 20,-1 42,-3 61,-4 11,-1 20,-1 31,-3 14,-2 16,-5 24,-7 2,-6 2,-13 1,-21 -12,-3 -15,3 -26,5 -9,1 -21,2 -30,2 -67,1 -114,11 -188,2 -4,-14 -7,-51 -6,-67 7,-1 9,-2 15,0 2,-3 -2,-4 2,-3 -14,-2 -25,-4 -32,-16 -10,-16 -2,-25 10,-32l0 -20c37,-2 149,5 153,5 10,-1 6,2 7,-5 -4,-1 0,1 -5,-2 -23,-11 -41,-10 -70,-13 -29,-3 -60,0 -88,-2l-1 -20c66,-11 182,40 228,37 22,0 29,8 30,-15 -9,-1 -14,-2 -21,-3 -4,-1 -7,-1 -11,-2l-11 -4 -101 -18c-8,-1 -14,-3 -22,-2 -45,1 -27,-6 -57,-9 -16,-2 -28,4 -41,1 -12,-3 -16,-16 -13,-29l11 -3c0,-10 -4,-19 -2,-30 8,-3 83,-1 93,1 13,3 -9,-3 3,1 1,0 1,1 2,1 0,0 1,0 1,1 17,-5 104,6 131,9 7,1 17,1 24,0 9,-1 11,-4 17,-5 1,-1 9,-13 4,-18 -8,-3 -27,-4 -37,-2 -10,2 -2,3 -14,6 -16,4 -73,1 -89,0 -12,-1 -25,0 -34,-5 -15,-8 -41,-4 -69,-5l-33 -4c-3,-1 -1,1 -3,-3 -2,-4 -2,-14 -2,-19 0,-8 -2,-17 -2,-24 11,-1 21,-5 33,-3 5,-4 22,-4 31,-4l198 -4c16,0 18,2 16,-16 -42,-4 -165,-7 -212,-3 -17,1 -54,6 -69,4l-1 -18c54,-21 193,-10 254,-4l32 3c0,-20 -5,-18 -23,-22 -57,-12 -31,-2 -75,-1 -13,0 -27,0 -40,0 -14,0 -28,-1 -42,-1 -35,0 -18,-1 -35,-6 -17,-5 -56,8 -74,6 -2,-6 -2,-8 -2,-16 0,-7 1,-10 -3,-14l-31 -8c1,12 7,43 2,44z"/>
  <path class="fil2" d="M447 646l0 -27 22 2c-1,10 -3,9 -3,21 -6,-5 -3,-5 -15,-6l-4 9zm-319 -72c28,-3 52,-7 78,-10 26,-3 54,-3 82,-5 48,-4 120,-3 163,8l-4 28c-21,2 -60,-1 -84,0 -38,1 -221,18 -233,8 -5,-4 -4,-23 -2,-30zm368 -86c-4,4 -5,11 -6,13l-1 -15 -17 1c-6,7 -2,6 -5,15 -2,5 0,2 -3,5 0,-10 3,-25 4,-33l28 0c0,9 -3,7 -1,15zm-36 17l-5 41c-38,2 -85,-2 -123,-2 -30,0 -14,-3 -26,-5 -2,0 -7,0 -9,0 -6,1 -35,2 -45,3 -24,2 -120,16 -126,15l0 -21 85 -15c57,-10 205,-47 254,-44l-4 28zm-361 -11l22 -5c3,-15 -1,-39 -1,-56 12,-3 113,3 119,8 15,-1 36,3 52,4l104 5c9,0 18,0 28,1 8,0 18,-1 25,4 -11,4 -42,4 -56,6 -19,3 -36,7 -53,10 -31,5 -65,18 -98,24 -16,17 -125,25 -153,25 -18,0 -41,-4 -58,1l-2 12c1,11 4,9 26,8 11,0 36,-3 45,-1 1,17 3,23 -4,24 -4,2 -21,4 -29,3 -7,5 -13,3 -25,4 -1,7 -1,7 2,13 15,1 46,-8 59,-5l0 25 -43 -2c1,15 3,8 19,13 0,0 3,1 4,2l2 2 14 3c4,1 2,0 4,2 3,7 4,52 2,62 -5,2 -5,1 -11,3l-10 3c6,2 10,1 12,0 0,0 4,-1 5,-1l3 -1c6,-1 4,-3 4,-3l1 -15c0,-18 -6,-36 -4,-44 2,-9 -1,-4 6,-9 3,15 4,47 4,64 0,0 0,-1 0,-1l5 -8c6,-11 -9,-41 2,-54 4,16 5,46 2,60 12,-8 3,-43 5,-58l83 -2c21,0 33,-3 53,-4 19,0 38,-2 59,-2 14,0 113,1 114,6 6,1 7,-2 3,20 -1,7 -2,16 -3,22 -16,1 -34,-2 -50,-2 -15,0 -138,1 -148,11 12,0 20,0 31,-1 10,-1 20,-1 29,-3 11,-2 22,-7 40,-1 6,2 4,2 4,3 1,1 0,3 12,4l127 8c-4,-6 -2,-5 -15,-5 8,-1 9,1 17,-2 -16,-12 -27,11 -15,-46 24,-4 92,22 111,30 17,8 29,17 45,27 12,8 33,22 48,16 0,-11 1,-4 -10,-6 -15,-3 -41,-26 -61,-37 -12,-6 -24,-12 -35,-20 -8,-6 -6,-8 -16,-12 -9,-3 -16,-4 -21,-9l-56 -14c-1,-7 2,-20 4,-28 18,-2 98,26 120,33 13,4 40,20 40,1 0,-8 1,-1 -2,-5 -2,-3 -5,-4 -8,-6 -18,-9 -41,-15 -60,-22 -18,-7 -81,-22 -84,-24 0,-18 13,-45 10,-61 4,-4 2,-7 5,-13 13,-1 29,0 43,0 34,-1 65,33 95,32 2,-18 -24,-27 -27,-37 11,-6 15,1 16,-14 -12,0 -11,5 -28,1 -8,-2 -16,-5 -24,-7 -16,-4 -4,1 -27,-6 -8,-2 -19,-2 -25,-7l-14 -2 1 -6 1 -9c-10,-2 -15,-5 -26,-5l-14 19 -134 -7c-14,-2 -30,0 -44,-2 -29,-2 -59,-5 -87,-7 -18,-1 -78,0 -87,-5 -1,-23 5,-25 -18,-23 -2,3 0,2 -7,4l1 22 -61 0 2 13c13,1 46,-6 58,0 6,4 5,58 6,64z"/>
  <path class="fil2" d="M432 752c10,1 4,4 18,1l-1 19c-4,-4 -1,-5 -8,-7 -8,-2 -7,-1 -9,4l0 -17zm-299 28c-1,-36 -2,-28 33,-26 22,1 38,2 59,5 -5,3 -85,22 -92,21zm225 -27c14,-3 58,-4 71,-2l-1 19c-9,1 -44,-7 -60,-9l-14 -2c-5,-2 -2,-1 -4,-2l8 -3zm-206 -55c41,-7 83,-13 125,-16 23,-2 45,-3 69,-3 24,0 46,3 68,3l22 3c0,6 -3,42 -7,45 -9,4 -42,0 -56,3l-46 13c-16,5 -81,20 -97,21 4,-7 1,-3 7,-8 5,-4 4,-1 7,-7 -4,-3 -10,-2 -15,-3 -19,-1 -24,-4 -38,-6 -17,-2 -39,0 -57,-1 -4,-10 -3,-27 -2,-39l20 -4zm-68 -7c-11,-2 -32,3 -40,7 0,8 -1,9 3,12 14,0 53,-6 61,-4 3,9 4,27 2,36 -11,3 -52,1 -57,2 -5,1 -3,0 -5,3 3,6 0,4 7,5l26 -1c16,0 28,-3 29,4l0 33c-7,3 -17,5 -24,7 -17,5 -27,11 -43,19 -11,5 -10,7 -8,21 15,1 66,-20 78,-18l2 39c4,2 5,2 10,3 19,4 11,-4 12,-48 18,-7 48,-15 68,-20 33,-9 73,-28 107,-24l75 12c12,2 26,4 38,7 0,17 -9,70 -6,81l21 0c12,-20 10,-48 13,-74 21,0 114,28 141,35 12,1 15,5 19,-6 -3,-2 1,-1 -4,-1 -9,-2 6,0 -3,0 -1,0 -5,0 -7,0 -16,0 -45,-13 -58,-23 -6,-4 -5,-6 -8,-8l-9 -4c0,-1 -1,0 -1,-1 -10,1 -24,-3 -35,-4 -23,-2 -38,-1 -31,-24 20,-5 107,23 121,7 -2,-6 -3,-5 -11,-7 -16,-6 -27,-7 -43,-11 -17,-3 -51,-6 -64,-11l7 -47c41,0 148,60 176,47 0,0 0,-1 0,-1 0,0 0,-1 0,-1 0,-6 -4,-7 -11,-12 -22,-14 -128,-52 -143,-48 -8,2 -9,1 -17,2 13,0 10,0 15,5l-127 -8c-12,-1 -11,-3 -12,-4 0,0 2,-1 -4,-3 -18,-6 -29,-1 -40,1 -9,2 -20,1 -29,3 -11,2 -19,1 -31,1 -12,-2 -48,6 -61,7 -19,2 -54,11 -57,11l3 -8c3,-13 2,-44 -2,-60 -11,13 4,43 -2,54l-5 8c0,0 0,0 0,1 0,-17 -1,-49 -4,-64 -6,5 -4,0 -6,9 -2,8 4,26 4,44l-1 15c0,0 1,1 -4,3l-3 1c-1,0 -4,1 -5,1 -3,0 -6,1 -12,0z"/>
  <path class="fil2" d="M1103 711c-2,13 27,73 24,85 -13,4 -53,4 -65,-2 -4,-5 -25,-84 -25,-92 -4,-5 -4,-5 -5,-13 6,-5 15,-7 23,-12 6,-4 13,-11 18,-12l29 46zm26 -107c12,2 32,26 38,35 7,9 20,37 19,52 9,16 5,71 0,88 -5,-4 -6,-8 -11,-13 -18,-19 -50,-45 -68,-64 -63,-69 -14,-130 22,-98zm-319 -252c18,-1 66,-7 80,3 -9,23 -73,27 -80,-3zm263 -213c8,-1 21,3 29,6 13,6 18,7 21,16 -10,-2 -10,-6 -19,-8 3,9 6,7 10,13 2,3 1,1 2,4 2,2 1,1 3,3 8,9 22,40 21,52l3 10c7,50 -11,108 -11,174 -1,73 3,112 -15,180 -26,1 -36,4 -44,29 -9,27 11,36 -19,53 -23,12 -84,32 -114,30l0 -18c-7,3 -17,31 -20,40 -14,39 -33,100 -46,132l-32 5c-16,3 -46,1 -57,-7 0,-9 0,-2 7,-17l57 -117c3,-12 17,-38 12,-47l-6 7c0,5 0,7 -4,10l-2 7c-10,2 -39,-12 -47,-16 -48,-27 -66,-59 -77,-117 1,-3 -1,-36 1,-47 1,-11 6,-33 13,-40 -1,-9 15,-33 20,-39 4,-6 9,-11 14,-17 4,-5 9,-12 14,-14 5,-9 19,-19 28,-25 9,-7 7,-6 17,-3 46,13 60,-21 74,-23 6,-1 13,-5 17,-5 4,-6 -1,-5 8,-3 5,1 14,9 21,10 -1,-14 -17,-10 -22,-20 4,-3 8,-1 10,-1 6,1 3,3 8,-1 -4,-13 -19,1 -16,-19 11,-1 4,8 19,4 13,-4 14,-4 15,-9 -7,-4 -8,-1 -14,0 -3,3 0,5 -12,0 -7,-3 -9,-1 -8,-11 8,-4 8,1 18,-5 5,-3 9,-5 10,-10 -9,-5 -11,8 -29,7 2,-13 5,-16 10,-27 8,-16 13,-5 43,-23 40,-23 57,-59 53,-112l-4 -24c9,1 26,2 32,7 -7,4 -8,0 -11,7 10,4 32,3 38,12 -7,0 -15,0 -20,2 -1,4 -2,-2 0,2 0,0 1,1 1,1 0,0 1,1 1,1zm-238 -81c-5,3 -14,11 -18,12 -1,-37 -9,-45 -9,-52 10,0 19,7 25,11 8,5 13,10 21,17 -4,3 -13,7 -19,11zm99 -14c-17,-2 -27,-4 -45,-3 -11,0 -12,2 -21,3 -12,2 -16,-11 -40,-26 -24,-15 -22,-6 -31,0 1,5 -2,31 -2,42 0,9 3,34 1,39 -6,18 -17,16 -14,72 2,11 10,33 18,40 3,3 1,2 3,2 6,3 1,-1 6,4 2,2 1,0 2,4 4,-2 5,7 2,-5 -5,-7 -13,-13 -14,-21l-4 -4c0,0 -2,-5 -2,-5 -5,-11 -5,-24 -5,-37 0,-17 5,-31 12,-43 31,-61 98,-69 157,-48 12,4 11,2 20,-4 11,-8 44,-27 56,-28 -4,5 1,0 -3,4l-16 12c-4,5 -7,11 -13,16 -6,6 -9,8 -11,17 9,-2 19,-14 28,-24 6,-7 19,-20 28,-23 -3,19 -9,37 -14,55l-6 15c-7,-4 -9,-10 -18,-12 3,8 11,13 15,22 10,19 10,41 5,61 -2,7 -5,21 -10,25 -9,27 -42,45 -67,52 -18,5 -20,17 -25,34l-4 17c0,4 0,2 1,5 3,10 1,3 0,10l-1 4c0,0 0,1 0,1 0,2 1,1 2,5l-5 3c2,3 2,3 3,7 -5,3 -3,2 -11,2 1,4 1,2 3,4 2,4 1,-3 2,3 -7,3 -9,4 -17,4 -8,0 -11,-1 -15,-5 -6,2 -28,0 -32,-4 -4,-6 -3,-20 -1,-29 0,0 -5,2 -5,2l-4 -3 1 31c-19,4 -50,9 -65,-1 4,-9 5,-3 5,-11l-6 1 1 -6c3,-12 -2,-9 1,-21 1,-6 2,-2 2,-11 0,-4 -1,-6 -1,-11 9,3 0,-2 8,12 2,3 1,2 3,3 -1,-8 -2,-15 -9,-20 6,-5 3,0 4,-11 0,-4 0,-8 -1,-12 -9,8 2,3 -9,26 -3,0 -7,-2 -11,1 3,5 17,11 -3,18 -6,2 -6,0 -11,-2 -9,-4 -20,1 -20,11 13,-1 4,-8 19,-4 17,5 7,1 22,-1l-1 11c-5,4 -6,2 -11,5 -4,3 -5,6 -9,8 -10,5 -17,-1 -21,14 27,-4 31,-16 39,-17 2,22 -1,13 -14,27 -4,5 -3,2 -4,9 10,-1 15,-11 21,-15 17,9 -4,7 31,11l14 18c-4,5 -12,10 -19,15 -48,40 -82,99 -78,166 4,82 54,130 127,151 0,17 -53,115 -54,121 -4,6 -14,24 -16,30l4 6c8,0 30,6 42,7 17,1 32,-4 45,-3 5,-4 1,-1 8,-3 10,-4 4,1 13,-23 2,-6 3,-10 6,-16 2,-6 3,-13 7,-17 0,-6 12,-39 15,-49 4,-12 11,-44 22,-47l8 -1c3,0 8,-1 12,-2 27,-3 60,-15 69,-15 2,6 15,53 14,59 6,6 7,19 9,27 2,9 5,19 9,26l10 0c12,1 23,3 37,3 8,0 25,-2 31,-7 -1,-15 -26,-72 -26,-84 11,8 56,51 59,58 10,6 9,16 20,21 11,-33 10,-94 -2,-127 -15,-41 -32,-56 -65,-75 0,-14 17,-37 16,-141 -1,-55 3,-93 10,-143 3,-40 6,-70 -9,-109 -4,-9 -11,-21 -13,-28l14 5c-3,-16 -21,-31 -37,-37 2,-4 4,-2 5,-7 -6,-7 -21,-11 -31,-13 1,-9 0,-1 2,-5l2 -3c0,-1 1,-1 1,-1l-48 -12c6,-21 23,-57 18,-82 -9,-4 -13,2 -12,-6l-6 3c-15,7 -9,6 -9,6 -2,4 -4,4 -10,7 -45,20 -37,36 -80,19z"/>
  <path class="fil2 str1" d="M795 253c0,-5 -2,-4 4,-6 3,-1 24,-4 31,1 -5,4 -28,10 -35,5zm0 -12c-6,1 -9,3 -11,9 1,4 1,8 1,12 -1,11 1,6 -4,11 6,5 8,13 9,20 1,8 8,14 15,14 13,0 17,-15 26,-8 6,5 5,7 10,9l4 3c0,0 4,-2 5,-2l11 -12c16,0 15,13 31,11 10,-1 18,-13 21,-22 6,-18 8,-21 4,-40l-2 -2 -7 -4c-10,-6 -68,-2 -84,-3 -26,-1 -16,4 -30,3z"/>
  <path class="fil2" d="M928 614c-2,15 -1,5 2,9 6,-5 7,-7 9,-13l19 6 -5 14c9,-3 6,2 10,-7 9,-19 4,-5 23,-17 4,-2 12,-10 15,-13 21,-26 34,-58 44,-91 14,-46 11,-100 6,-150 -1,-8 -3,-20 -3,-26 0,-9 3,-15 2,-27l1 -2c-3,-1 -3,-1 -6,-2 -1,8 0,8 -5,11 0,0 -1,1 -1,1 0,0 -1,0 -1,1 8,54 15,118 4,175 -5,26 -16,49 -25,70l-18 30c-6,9 -15,15 -28,21 -7,-3 -1,-1 -7,-4 -8,5 1,9 -16,5 0,0 0,-2 0,-2l-1 -3c-1,-7 3,0 -1,-8 -10,3 0,0 -5,3 -6,4 2,1 -6,4 -12,-8 -8,-11 -6,-15l-3 -2c-2,-1 -6,1 -5,-13 1,-6 2,-12 7,-16 0,-7 0,-4 4,-7 0,-5 18,-41 22,-51 4,-11 16,-48 20,-53 9,-57 16,-67 5,-129 -2,-11 -2,-12 -8,-17 0,14 3,30 5,43 13,108 -59,202 -61,230 0,8 3,16 0,20 -3,7 -10,4 -10,14 10,0 7,-5 16,-8 2,2 10,9 11,12l-4 7z"/>
  <path class="fil2" d="M974 872c2,21 69,30 105,20 10,-3 24,-8 24,-20 -2,-38 -130,-26 -128,0z"/>
  <path class="fil2" d="M1725 742c-2,1 -1,1 -5,2 -10,3 -86,-1 -104,1 -8,10 -9,9 -23,12 -6,2 -10,2 -15,4l-13 4c0,0 -1,0 -1,1l193 -5c13,-5 12,-6 12,-21 -12,0 -35,6 -44,2z"/>
  <path class="fil3" d="M1068 802c8,8 12,6 26,5 32,0 27,3 50,-7 0,0 1,0 1,-1l9 -4c3,-2 3,-4 7,-6 -2,-9 -2,-4 -2,-15 0,0 0,-1 0,-1l4 -9c1,3 -1,8 9,7 -3,-7 -49,-49 -59,-58 0,12 25,69 26,84 -6,5 -23,7 -31,7 -14,0 -24,-2 -37,-3z"/>
  <path class="fil2" d="M779 860l-4 -6c2,-7 12,-24 16,-30 -6,-4 -10,-3 -17,-3 -11,1 -38,8 -39,18 -1,14 30,15 33,16 12,4 0,8 12,5z"/>
  <path class="fil2" d="M956 155c6,-4 -1,-4 7,-3 14,3 -11,38 -31,24 -16,-10 -18,-45 -1,-55 6,3 13,8 14,15 2,-1 6,-2 7,-3 2,5 6,9 10,12 0,0 -1,1 -1,1l-4 9zm-42 -21c-1,13 -2,14 1,27 4,21 4,8 10,18 9,7 15,11 27,6 11,-5 14,-12 20,-19l11 -5c-4,-4 -8,-7 -13,-11l-34 -34c-7,-4 -11,-6 -21,-7 1,7 -1,8 6,10 -7,8 -3,8 -8,16z"/>
  <path class="fil2" d="M866 152c-3,11 -16,27 -29,28 -18,1 -23,-21 -20,-37 6,-38 63,-35 50,9zm-58 -9c1,12 3,17 5,27 5,6 7,13 14,13 9,4 22,1 29,-5 2,-1 7,-7 9,-10 3,-4 5,-8 7,-12 3,-14 7,-17 0,-32 -5,-9 -11,-15 -21,-16 -31,-4 -40,34 -40,33 0,0 -1,1 -1,1z"/>
  <path class="fil2" d="M865 864c5,1 3,1 9,0 12,-2 0,-5 22,-8 10,-1 20,-5 23,-13 -3,-11 -16,-14 -23,-17 2,-8 5,-14 4,-21 -4,4 -6,11 -7,17 -2,7 -3,11 -6,16 -9,24 -3,18 -13,23 -6,3 -3,-1 -8,3z"/>
  <path class="fil2" d="M1058 802c-4,-8 -6,-17 -9,-26 -2,-8 -4,-21 -9,-27l2 18 -14 7c-5,3 -6,5 -7,12 7,15 19,13 37,17z"/>
  <path class="fil2" d="M944 136c-4,2 -3,3 -6,7 -3,3 -8,2 -3,12 4,7 16,9 21,1l4 -9c0,0 1,-1 1,-1 -4,-3 -8,-6 -10,-12 -1,1 -5,2 -7,3z"/>
  <path class="fil2" d="M832 147c1,14 14,18 22,11 7,-7 5,-22 -11,-22l-3 6c-4,4 -3,1 -7,5z"/>
 </g>
</svg>
