<?xml version="1.0" encoding="UTF-8"?>
<!DOCTYPE svg PUBLIC "-//W3C//DTD SVG 1.0//EN" "http://www.w3.org/TR/2001/REC-SVG-20010904/DTD/svg10.dtd">
<!-- Creator: CorelDRAW 2017 -->
<svg xmlns="http://www.w3.org/2000/svg" xml:space="preserve" width="400px" height="500px" version="1.0" style="shape-rendering:geometricPrecision; text-rendering:geometricPrecision; image-rendering:optimizeQuality; fill-rule:evenodd; clip-rule:evenodd"
viewBox="0 0 400 500"
 xmlns:xlink="http://www.w3.org/1999/xlink"
 data-name="Layer 1">
 <defs>
  <style type="text/css">
   <![CDATA[
    .str0 {stroke:#2B2A29;stroke-width:2}
    .fil0 {fill:#FEFEFE}
    .fil1 {fill:#76362C}
   ]]>
  </style>
 </defs>
 <g id="Слой_x0020_1">
  <metadata id="CorelCorpID_0Corel-Layer"/>
  <rect class="fil0 str0" x="35" y="34" width="330" height="433" rx="63" ry="63"/>
  <path class="fil1" d="M242 237l-35 35 35 35c2,2 2,6 0,8 -1,1 -2,2 -4,2 -1,0 -3,-1 -4,-2l-35 -35 -35 35c-1,1 -2,2 -4,2 -1,0 -3,-1 -4,-2 -2,-2 -2,-6 0,-8l35 -35 -35 -35c-2,-2 -2,-6 0,-8 2,-2 6,-2 8,0l35 35 35 -35c2,-2 6,-2 8,0 2,2 2,6 0,8l0 0zm79 -70c0,3 -2,6 -6,6l-16 0c0,0 0,0 0,1l-15 163c-2,26 -24,45 -49,45l-69 0c-26,0 -47,-19 -49,-45l-15 -163c0,0 0,0 0,-1l-16 0c-3,0 -5,-2 -5,-6 0,-3 2,-5 5,-5l55 0c3,-25 24,-44 49,-44l22 0c25,0 46,19 49,44l55 0c3,0 5,2 5,5l0 0zm-170 -5l98 0c-3,-19 -19,-33 -38,-33l-22 0c-19,0 -35,14 -38,33zm137 11l-176 0 15 163c2,20 18,35 38,35l69 0c20,0 36,-15 38,-35l15 -163 0 0z"/>
 </g>
 <g id="Слой_x0020_1_0">
  <metadata id="CorelCorpID_1Corel-Layer"/>
 </g>
</svg>
