<?xml version="1.0" encoding="UTF-8"?>
<!DOCTYPE svg PUBLIC "-//W3C//DTD SVG 1.0//EN" "http://www.w3.org/TR/2001/REC-SVG-20010904/DTD/svg10.dtd">
<!-- Creator: CorelDRAW 2017 -->
<svg xmlns="http://www.w3.org/2000/svg" xml:space="preserve" width="1000px" height="60px" version="1.0" style="shape-rendering:geometricPrecision; text-rendering:geometricPrecision; image-rendering:optimizeQuality; fill-rule:evenodd; clip-rule:evenodd"
viewBox="0 0 1000 60"
 xmlns:xlink="http://www.w3.org/1999/xlink">
 <defs>
  <style type="text/css">
   <![CDATA[
    .str0 {stroke:#FEFEFE;stroke-width:2}
    .fil2 {fill:none}
    .fil1 {fill:none;fill-rule:nonzero}
    .fil0 {fill:#FEFEFE;fill-rule:nonzero}
   ]]>
  </style>
 </defs>
 <g id="Слой_x0020_1">
  <metadata id="CorelCorpID_0Corel-Layer"/>
  <g id="_2425044782304">
   <g>
    <path class="fil0 str0" d="M111 35c309,-40 398,-20 702,-9 0,0 0,0 0,-1 -304,-11 -394,-30 -703,9 0,0 0,0 1,1z"/>
    <path class="fil1 str0" d="M737 19c-248,-10 -339,-21 -589,9 239,-28 329,-19 566,-7 -240,-9 -346,-18 -586,15 185,-25 299,-24 488,-15 -168,-9 -254,-11 -422,6 165,-15 249,-13 413,-3 -256,-13 -360,-5 -603,34 416,-63 466,-30 873,-17 -28,-3 -56,-7 -84,-11 20,3 40,6 59,8 -20,-1 -41,-1 -61,-2 6,0 13,0 19,0 -302,-11 -390,-31 -696,8 22,-2 44,-4 67,-6 -7,0 -13,1 -20,1 13,-2 26,-3 39,-5 -3,1 -6,2 -10,3 165,-21 251,-22 421,-18 -140,-4 -246,-3 -383,13 117,-13 215,-15 335,-12 -110,-3 -203,-2 -311,10 -4,0 -7,0 -11,-1 152,-16 239,-15 393,-11 1,1 3,2 4,3 112,5 219,9 332,9 -109,0 -214,-3 -323,-8 -131,-7 -239,-13 -372,-4 138,-9 248,-1 383,8 -279,-14 -367,-13 -638,29 401,-59 458,-27 851,-14 -336,-11 -431,-40 -774,3 338,-43 430,-15 762,-4 -297,-10 -411,-35 -713,-1 295,-33 400,-10 689,0 -11,-2 -21,-4 -32,-6 15,2 30,4 45,6"/>
    <path class="fil1 str0" d="M630 20c83,4 165,7 249,8 -81,-1 -161,-3 -242,-6 81,3 161,6 242,7 -81,-1 -160,-5 -240,-9"/>
    <path class="fil0 str0" d="M66 40c314,-41 386,-26 694,-9 -4,0 -8,0 -12,0 -301,-17 -375,-31 -682,10z"/>
    <path class="fil0 str0" d="M387 20c195,0 395,21 613,23 -1,0 -1,-1 -2,-1 -216,-2 -417,-22 -611,-22z"/>
   </g>
  </g>
  <path class="fil2" d="M0 54c453,-74 530,-20 1000,-20"/>
 </g>
</svg>
